<svg viewBox="0 0 723 523" width="723" height="523" xmlns="http://www.w3.org/2000/svg" role="img" aria-label="Diagrama UML del patrón Builder: NotificadorEmail usa CorreoBuilder, que encadena con_encabezado, con_saludo, con_parrafo, con_boton y con_pie hasta construir() el HTML final">
<rect x="0" y="0" width="723" height="523" fill="#f5f7fa"/>

<defs>
  <marker id="gen" markerWidth="16" markerHeight="14" refX="15" refY="7" orient="auto">
    <polygon points="0,0 16,7 0,14" fill="#ffffff" stroke="#1a2233" stroke-width="1.2"/>
  </marker>
  <marker id="dep" markerWidth="12" markerHeight="10" refX="10" refY="5" orient="auto">
    <polyline points="0,0 10,5 0,10" fill="none" stroke="#1a2233" stroke-width="1.3"/>
  </marker>
</defs>

<line x1="237" y1="152.5" x2="319" y2="152.5" stroke="#1a2233" stroke-width="1.3" stroke-dasharray="5,4" marker-end="url(#dep)"/>
<text x="282.0" y="142.5" text-anchor="middle" font-family="IBM Plex Mono, monospace" font-style="italic" font-size="11.5" fill="#1a2233" opacity="0.8">«usa» (director)</text>
<g transform="translate(40,86.5)">
<rect x="0" y="0" width="197" height="132" rx="6" fill="#ffffff" stroke="#1a2233" stroke-width="1.3"/>
<text x="98.5" y="21" text-anchor="middle" font-family="IBM Plex Mono, monospace" font-style="italic" font-size="11.5" fill="#1a2233" opacity="0.72">«director»</text>
<text x="98.5" y="40" text-anchor="middle" font-family="Space Grotesk, sans-serif" font-weight="700"  font-size="15" fill="#1a2233">NotificadorEmail</text>
<line x1="0" y1="56" x2="197" y2="56" stroke="#1a2233" stroke-width="1"/>
<line x1="0" y1="85" x2="197" y2="85" stroke="#1a2233" stroke-width="1"/>
<text x="14" y="99" font-family="IBM Plex Mono, monospace" font-size="12.5" fill="#1a2233"><tspan fill="#1a2233" opacity="0.6">+</tspan> enviar_bienvenida()</text>
<text x="14" y="118" font-family="IBM Plex Mono, monospace" font-size="12.5" fill="#1a2233"><tspan fill="#1a2233" opacity="0.6">+</tspan> enviar_recuperacion()</text>
</g>
<g transform="translate(327,56)">
<rect x="0" y="0" width="315" height="193" rx="6" fill="#ffffff" stroke="#1a2233" stroke-width="1.3"/>
<text x="157.5" y="24" text-anchor="middle" font-family="Space Grotesk, sans-serif" font-weight="700"  font-size="15" fill="#1a2233">CorreoBuilder</text>
<line x1="0" y1="40" x2="315" y2="40" stroke="#1a2233" stroke-width="1"/>
<text x="14" y="54" font-family="IBM Plex Mono, monospace" font-size="12.5" fill="#1a2233"><tspan fill="#1a2233" opacity="0.6">-</tspan> _partes: list</text>
<line x1="0" y1="69" x2="315" y2="69" stroke="#1a2233" stroke-width="1"/>
<text x="14" y="83" font-family="IBM Plex Mono, monospace" font-size="12.5" fill="#1a2233"><tspan fill="#1a2233" opacity="0.6">+</tspan> con_encabezado(titulo): CorreoBuilder</text>
<text x="14" y="102" font-family="IBM Plex Mono, monospace" font-size="12.5" fill="#1a2233"><tspan fill="#1a2233" opacity="0.6">+</tspan> con_saludo(nombre): CorreoBuilder</text>
<text x="14" y="121" font-family="IBM Plex Mono, monospace" font-size="12.5" fill="#1a2233"><tspan fill="#1a2233" opacity="0.6">+</tspan> con_parrafo(texto): CorreoBuilder</text>
<text x="14" y="140" font-family="IBM Plex Mono, monospace" font-size="12.5" fill="#1a2233"><tspan fill="#1a2233" opacity="0.6">+</tspan> con_boton(texto, url): CorreoBuilder</text>
<text x="14" y="159" font-family="IBM Plex Mono, monospace" font-size="12.5" fill="#1a2233"><tspan fill="#1a2233" opacity="0.6">+</tspan> con_pie(texto): CorreoBuilder</text>
<text x="14" y="178" font-family="IBM Plex Mono, monospace" font-size="12.5" fill="#1a2233"><tspan fill="#1a2233" opacity="0.6">+</tspan> construir(): str</text>
</g>
<line x1="440.2" y1="326.0" x2="456.2" y2="326.0" stroke="#1a2233" stroke-width="1.2" marker-end="url(#dep)"/>
<line x1="545.0" y1="326.0" x2="561.0" y2="326.0" stroke="#1a2233" stroke-width="1.2" marker-end="url(#dep)"/>
<line x1="404.7" y1="372.0" x2="420.7" y2="372.0" stroke="#1a2233" stroke-width="1.2" marker-end="url(#dep)"/>
<line x1="488.2" y1="372.0" x2="504.2" y2="372.0" stroke="#1a2233" stroke-width="1.2" marker-end="url(#dep)"/>
<path d="M656.9,326.0 H682.9 V372.0 H323" fill="none" stroke="#1a2233" stroke-width="1.2" marker-end="url(#dep)"/>
<text x="327" y="293" font-family="IBM Plex Sans, sans-serif" font-size="12" font-weight="600" fill="#1a2233" opacity="0.75">La cadena real (cada con_... devuelve self):</text>
<g transform="translate(327,311)">
<rect x="0" y="0" width="113" height="30" rx="15" fill="#ffffff" stroke="#1a2233" stroke-width="1.1"/>
<text x="57" y="19" text-anchor="middle" font-family="IBM Plex Mono, monospace" font-size="12" fill="#1a2233">encabezado()</text>
</g>
<g transform="translate(460.2,311)">
<rect x="0" y="0" width="85" height="30" rx="15" fill="#ffffff" stroke="#1a2233" stroke-width="1.1"/>
<text x="42" y="19" text-anchor="middle" font-family="IBM Plex Mono, monospace" font-size="12" fill="#1a2233">saludo()</text>
</g>
<g transform="translate(565.0,311)">
<rect x="0" y="0" width="92" height="30" rx="15" fill="#ffffff" stroke="#1a2233" stroke-width="1.1"/>
<text x="46" y="19" text-anchor="middle" font-family="IBM Plex Mono, monospace" font-size="12" fill="#1a2233">parrafo()</text>
</g>
<g transform="translate(327,357)">
<rect x="0" y="0" width="78" height="30" rx="15" fill="#ffffff" stroke="#1a2233" stroke-width="1.1"/>
<text x="39" y="19" text-anchor="middle" font-family="IBM Plex Mono, monospace" font-size="12" fill="#1a2233">boton()</text>
</g>
<g transform="translate(424.7,357)">
<rect x="0" y="0" width="64" height="30" rx="15" fill="#ffffff" stroke="#1a2233" stroke-width="1.1"/>
<text x="32" y="19" text-anchor="middle" font-family="IBM Plex Mono, monospace" font-size="12" fill="#1a2233">pie()</text>
</g>
<g transform="translate(508.2,357)">
<rect x="0" y="0" width="106" height="30" rx="15" fill="#e7edf9" stroke="#1a2233" stroke-width="1.1"/>
<text x="53" y="19" text-anchor="middle" font-family="IBM Plex Mono, monospace" font-size="12" fill="#1e3c72">construir()</text>
</g>
<g transform="translate(327,417)">
<path d="M0,0 H344 L356,12 V76 H0 Z" fill="#eef1f6" stroke="#1a2233" stroke-width="1" opacity="0.97"/>
<path d="M344,0 V12 H356" fill="none" stroke="#1a2233" stroke-width="1"/>
<text x="12" y="20" font-family="IBM Plex Sans, sans-serif" font-size="12" fill="#1a2233" opacity="0.85">Cada método con_... agrega una pieza y</text>
<text x="12" y="36" font-family="IBM Plex Sans, sans-serif" font-size="12" fill="#1a2233" opacity="0.85">devuelve el mismo builder (self); construir()</text>
<text x="12" y="52" font-family="IBM Plex Sans, sans-serif" font-size="12" fill="#1a2233" opacity="0.85">une todas las piezas en el HTML final del correo.</text>
</g>
<line x1="484.5" y1="249" x2="505.0" y2="417" stroke="#1a2233" stroke-width="1" stroke-dasharray="3,3" opacity="0.6"/>
</svg>